<svg width="159" height="294" viewBox="0 0 159 294" fill="none" xmlns="http://www.w3.org/2000/svg">
<path fill-rule="evenodd" clip-rule="evenodd" d="M138.163 20.8726C157.321 -2.06343 206.477 -7.77862 225.809 15.0076C250.173 43.7234 219.154 88.8744 227.091 125.686C230.19 140.056 247.235 145.929 256.498 157.343C277.037 182.652 323.259 202.093 314.6 233.516C306.75 262.005 257.258 241.875 230.035 253.378C208.629 262.422 196.945 297.877 174.265 292.812C149.854 287.361 151.786 248.62 133.298 231.775C118.884 218.641 96.928 219.441 81.1548 207.974C52.3958 187.068 -15.1705 167.711 3.84069 137.665C27.3847 100.454 99.5505 155.274 132.781 126.381C159.908 102.794 115.119 48.4607 138.163 20.8726Z" fill="url(#paint0_angular_4_1139)"/>
<defs>
<radialGradient id="paint0_angular_4_1139" cx="0" cy="0" r="1" gradientUnits="userSpaceOnUse" gradientTransform="translate(159.739 144.132) rotate(137.039) scale(152.176 109.033)">
<stop offset="0.43" stop-color="#8EB15F"/>
<stop offset="0.66" stop-color="#ADCA87"/>
</radialGradient>
</defs>
</svg>
