<svg width="1279" height="241" viewBox="0 0 1279 241" fill="none" xmlns="http://www.w3.org/2000/svg">
<g clip-path="url(#clip0_19_57)">
<g filter="url(#filter0_d_19_57)">
<g filter="url(#filter1_d_19_57)">
<path fill-rule="evenodd" clip-rule="evenodd" d="M39.7333 9.28537L-3 0V82.1715V83.5683V241H1279L1279 83.5683L1279 82.1715L1279 13.9281L1236.27 20.8921C1193.53 27.8561 1108.07 41.7842 1022.6 44.1055C937.133 46.4268 851.667 37.1415 766.2 25.5348C756.704 24.2451 747.208 22.9268 737.711 21.6086C661.741 11.0622 585.77 0.515854 509.8 4.64268C469.58 6.82748 429.361 13.1248 389.141 19.4222C343.894 26.5067 298.647 33.5912 253.4 34.8201C167.933 37.1415 82.4667 18.5707 39.7333 9.28537Z" fill="url(#paint0_linear_19_57)"/>
</g>
</g>
</g>
<defs>
<filter id="filter0_d_19_57" x="-7" y="0" width="1290" height="249" filterUnits="userSpaceOnUse" color-interpolation-filters="sRGB">
<feFlood flood-opacity="0" result="BackgroundImageFix"/>
<feColorMatrix in="SourceAlpha" type="matrix" values="0 0 0 0 0 0 0 0 0 0 0 0 0 0 0 0 0 0 127 0" result="hardAlpha"/>
<feOffset dy="4"/>
<feGaussianBlur stdDeviation="2"/>
<feComposite in2="hardAlpha" operator="out"/>
<feColorMatrix type="matrix" values="0 0 0 0 0 0 0 0 0 0 0 0 0 0 0 0 0 0 0.25 0"/>
<feBlend mode="normal" in2="BackgroundImageFix" result="effect1_dropShadow_19_57"/>
<feBlend mode="normal" in="SourceGraphic" in2="effect1_dropShadow_19_57" result="shape"/>
</filter>
<filter id="filter1_d_19_57" x="-7" y="-8" width="1290" height="249" filterUnits="userSpaceOnUse" color-interpolation-filters="sRGB">
<feFlood flood-opacity="0" result="BackgroundImageFix"/>
<feColorMatrix in="SourceAlpha" type="matrix" values="0 0 0 0 0 0 0 0 0 0 0 0 0 0 0 0 0 0 127 0" result="hardAlpha"/>
<feOffset dy="-4"/>
<feGaussianBlur stdDeviation="2"/>
<feComposite in2="hardAlpha" operator="out"/>
<feColorMatrix type="matrix" values="0 0 0 0 0 0 0 0 0 0 0 0 0 0 0 0 0 0 0.25 0"/>
<feBlend mode="normal" in2="BackgroundImageFix" result="effect1_dropShadow_19_57"/>
<feBlend mode="normal" in="SourceGraphic" in2="effect1_dropShadow_19_57" result="shape"/>
</filter>
<linearGradient id="paint0_linear_19_57" x1="2125.66" y1="-196.995" x2="2088.74" y2="452.893" gradientUnits="userSpaceOnUse">
<stop stop-color="#7E628D"/>
<stop offset="0.66" stop-color="#D05D81"/>
<stop offset="0.89" stop-color="#9A3354"/>
</linearGradient>
<clipPath id="clip0_19_57">
<rect width="1279" height="241" fill="white"/>
</clipPath>
</defs>
</svg>
