<svg width="1290" height="249" viewBox="0 0 1290 249" fill="none" xmlns="http://www.w3.org/2000/svg">
<g filter="url(#filter0_d_5_71)">
<path fill-rule="evenodd" clip-rule="evenodd" d="M46.7333 17.2854L4 8V90.1715V91.5683V249H1286L1286 91.5683L1286 90.1715L1286 21.9281L1243.27 28.8921C1200.53 35.8561 1115.07 49.7842 1029.6 52.1055C944.133 54.4268 858.667 45.1415 773.2 33.5348C763.704 32.2451 754.207 30.9268 744.711 29.6086C668.741 19.0622 592.77 8.51585 516.8 12.6427C476.58 14.8275 436.361 21.1248 396.141 27.4222C350.894 34.5067 305.647 41.5912 260.4 42.8201C174.933 45.1415 89.4667 26.5707 46.7333 17.2854Z" fill="url(#paint0_linear_5_71)"/>
</g>
<defs>
<filter id="filter0_d_5_71" x="0" y="0" width="1290" height="249" filterUnits="userSpaceOnUse" color-interpolation-filters="sRGB">
<feFlood flood-opacity="0" result="BackgroundImageFix"/>
<feColorMatrix in="SourceAlpha" type="matrix" values="0 0 0 0 0 0 0 0 0 0 0 0 0 0 0 0 0 0 127 0" result="hardAlpha"/>
<feOffset dy="-4"/>
<feGaussianBlur stdDeviation="2"/>
<feComposite in2="hardAlpha" operator="out"/>
<feColorMatrix type="matrix" values="0 0 0 0 0 0 0 0 0 0 0 0 0 0 0 0 0 0 0.25 0"/>
<feBlend mode="normal" in2="BackgroundImageFix" result="effect1_dropShadow_5_71"/>
<feBlend mode="normal" in="SourceGraphic" in2="effect1_dropShadow_5_71" result="shape"/>
</filter>
<linearGradient id="paint0_linear_5_71" x1="2132.66" y1="-188.995" x2="2095.74" y2="460.893" gradientUnits="userSpaceOnUse">
<stop stop-color="#7E628D"/>
<stop offset="0.66" stop-color="#D05D81"/>
<stop offset="0.89" stop-color="#9A3354"/>
</linearGradient>
</defs>
</svg>
